<svg id="Layer_1" data-name="Layer 1" xmlns="http://www.w3.org/2000/svg" viewBox="0 0 933.25 183.5"><defs><style>.cls-1{fill:#010202;}.cls-2{font-size:151px;font-family:ArialRoundedMTBold, Arial Rounded MT Bold;}.cls-3{font-size:100px;fill:#024a00;font-family:Pristina-Regular, Pristina;}</style></defs><path d="M143,85.44c-7.56.88-11.72,14-12.05,15,.17-.48,1.2-2.59,6.48-5.4,6-3.23,18.11,3.68,18.11,3.68-5.56,5-15.8,5.5-24.15,4.58s-7.9-19.28-8.36-33.5S119.76,57,119.76,57s.47-6.44-5.56,22.93-38.56,36.7-38.56,36.7c18.12,2.76,31.12-6,35.76-15.13S119.29,73,119.29,73c0,27.55,2.33,34.42,9.3,37.63s20.45-1.36,30.2-5c6.21-2.33,13.48-1.37,13.48-1.37l5.57-8.72s-7.91.44-13.47-1.83S150.9,84.53,143,85.44Z" transform="translate(-22.75 -6.78)"/><path d="M83.53,102.42c1.86-4.58-1.4-29.38-1.4-35.8s2.32-10.09,2.32-10.09c-3.24-1.84-5.55-10.1-5.55-10.1a73.16,73.16,0,0,1-4.19,7.34S84,99.22,78,104.71s-18.11,6.44-25.07,1.86.45-19.29.45-19.29c-4.18,5-7.43,11-7,17.43S51.48,117.56,62.63,118,81.66,107,83.53,102.42Z" transform="translate(-22.75 -6.78)"/><path d="M97.47,80.4c5.1,3.66,7.89,15.14,7.89,15.14,2.79-25.7-20-33-20-33s-.47,1.37,0,8.25S92.34,76.72,97.47,80.4Z" transform="translate(-22.75 -6.78)"/><path d="M72.17,125.31v9.29H82.61v-9.29h2.81v22.21H82.61V137.11H72.17v10.41H69.36V125.31Z" transform="translate(-22.75 -6.78)"/><path d="M93.73,140.54l-2.24,7H88.61L96,125.31H99.3l7.36,22.21h-3l-2.31-7Zm7.11-2.25L98.7,131.9c-.48-1.45-.8-2.76-1.12-4.05h-.06c-.32,1.28-.64,2.67-1.09,4l-2.11,6.42Z" transform="translate(-22.75 -6.78)"/><path d="M109.81,125.31h2.81v19.8h9.22v2.41h-12Z" transform="translate(-22.75 -6.78)"/><path d="M128.43,140.54l-2.24,7h-2.88l7.36-22.21H134l7.37,22.21h-3l-2.3-7Zm7.11-2.25-2.14-6.39c-.49-1.45-.81-2.76-1.12-4.05h-.07c-.32,1.28-.64,2.67-1.08,4L129,138.29Z" transform="translate(-22.75 -6.78)"/><path d="M144.5,125.31h2.81v19.8h9.21v2.41h-12V125.31Z" transform="translate(-22.75 -6.78)"/><path class="cls-1" d="M111.45,176.5c-42,0-76.12-35.16-76.12-78.38s34.15-78.38,76.12-78.38,76.12,35.16,76.12,78.38S153.42,176.5,111.45,176.5Zm0-153.7C71.11,22.8,38.3,56.59,38.3,98.12s32.81,75.32,73.15,75.32,73.15-33.79,73.15-75.32S151.78,22.8,111.45,22.8Z" transform="translate(-22.75 -6.78)"/><path class="cls-1" d="M111.45,189.46c-48.92,0-88.7-41-88.7-91.34S62.53,6.78,111.45,6.78s88.7,41,88.7,91.34S160.35,189.46,111.45,189.46Zm0-173.51c-44,0-79.8,36.86-79.8,82.17s35.8,82.17,79.8,82.17,79.8-36.86,79.8-82.17S155.45,16,111.45,16Z" transform="translate(-22.75 -6.78)"/><text class="cls-2" transform="translate(205.25 145.35)">FOOD</text><text class="cls-3" transform="translate(644.25 138.82) scale(2.12 1)">only</text></svg>